# OBJ written from C:\Users\Alexander B Cubic PC\Documents\KoD 2\Source Files\Building Constructer P1\Bake\Low.obj
# Units	meters

o Mesh (2)
v -2.5 -2.5 4.48
v -2.5 -2.5 4.96
v -2.5 2.5 4.96
v -2.5 2.5 4.48
v -2.06 -2.5 4.96
v -2.06 2.5 4.96
v -2.5 -2.5 5.44
v -2.5 -2.5 5.92
v -2.5 0 5.92
v -2.5 0 5.44
v -2.06 -2.5 5.92
v -2.06 0 5.92
v -2.5 -2.5 3.4
v -2.5 -2.5 3.88
v -2.5 2.5 3.88
v -2.5 2.5 3.4
v -2.06 -2.5 3.88
v -2.06 2.5 3.88
v -2.5 -2.5 -8.38
v -2.5 -2.5 -3.38
v -2.5 2.5 -3.38
v -2.5 2.5 -8.38
v -2.5 -2.5 -2.56
v -2.5 -2.5 2.44
v -2.5 2.5 2.44
v -2.5 2.5 -2.56
v -2.5 1.07666 -10.2612
v -2.5 1.07666 -10.7812
v -2.5 1.68166 -10.7812
v -2.5 1.68166 -10.2612
v -2.67 1.07666 -10.7812
v -2.67 1.68166 -10.7812
v -2.67 1.07666 -10.1162
v -2.67 1.68166 -10.1162
v -2.074 1.07666 -10.2612
v -2.074 1.68166 -10.2612
v -2.074 1.07666 -10.1162
v -2.074 1.68166 -10.1162
v -2.5 0.234296 -10.2612
v -2.5 0.234296 -11.0262
v -2.5 0.564021 -11.0262
v -2.5 0.564021 -10.2612
v -2.61 0.234296 -11.0262
v -2.61 0.564021 -11.0262
v -2.61 0.234296 -10.1462
v -2.61 0.564021 -10.1462
v -1.884 0.234296 -10.2612
v -1.884 0.564021 -10.2612
v -1.884 0.234296 -10.1462
v -1.884 0.564021 -10.1462
v -2.5 -0.595704 -10.2612
v -2.5 -0.595704 -10.5912
v -2.5 -0.265979 -10.5912
v -2.5 -0.265979 -10.2612
v -2.61 -0.595704 -10.5912
v -2.61 -0.265979 -10.5912
v -2.61 -0.595704 -10.1462
v -2.61 -0.265979 -10.1462
v -2.189 -0.595704 -10.2612
v -2.189 -0.265979 -10.2612
v -2.189 -0.595704 -10.1462
v -2.189 -0.265979 -10.1462
v -2.5 0.234296 -12.6712
v -2.5 0.234296 -13.4362
v -2.5 0.564021 -13.4362
v -2.5 0.564021 -12.6712
v -2.61 0.234296 -12.6712
v -2.61 0.234296 -13.4362
v -2.61 0.564021 -13.4362
v -2.61 0.564021 -12.6712
v -2.5 0.314296 -11.5262
v -2.5 0.314296 -12.0012
v -2.5 0.564021 -12.0012
v -2.5 0.564021 -11.5262
v -2.585 0.314296 -11.5262
v -2.585 0.314296 -12.0012
v -2.585 0.564021 -12.0012
v -2.585 0.564021 -11.5262
v -2.5 0.851796 -12.3637
v -2.5 0.851796 -13.0587
v -2.5 1.40152 -13.0587
v -2.5 1.40152 -12.3637
v -2.597 0.851796 -12.3637
v -2.597 0.851796 -13.0587
v -2.597 1.40152 -13.0587
v -2.597 1.40152 -12.3637
v -2.5 -0.583886 -11.0833
v -2.5 -0.583886 -12.4441
v -2.5 -0.437797 -12.4441
v -2.5 -0.437797 -11.0833
v -2.585 -0.583886 -11.0833
v -2.585 -0.583886 -12.4441
v -2.585 -0.437797 -12.4441
v -2.585 -0.437797 -11.0833
v -2.5 -1.16255 -11.0833
v -2.5 -1.16255 -12.4441
v -2.5 -0.879135 -12.4441
v -2.5 -0.879135 -11.0833
v -2.625 -1.16255 -11.0833
v -2.625 -1.16255 -12.4441
v -2.625 -0.879135 -12.4441
v -2.625 -0.879135 -11.0833
v -2.93 -2.27 -13.41
v -2.93 -2.27 -10.26
v -2.93 -1.71 -10.26
v -2.93 -1.71 -13.41
v -2.93 -3.32 -13.41
v -2.93 -3.32 -10.26
v -2.93 -3.12 -10.26
v -2.93 -3.12 -13.41
v -2.93 -2.81 -13.41
v -2.93 -2.81 -10.26
v -2.93 -2.53 -10.26
v -2.93 -2.53 -13.41
v -2.93 -2.27 -13.715
v -2.93 -2.27 -13.53
v -2.93 -1.71 -13.53
v -2.93 -1.71 -13.715
v -2.93 -3.32 -13.715
v -2.93 -3.32 -13.53
v -2.93 -3.12 -13.53
v -2.93 -3.12 -13.715
v -2.93 -2.81 -13.715
v -2.93 -2.81 -13.53
v -2.93 -2.53 -13.53
v -2.93 -2.53 -13.715
v -2.73 -1.71 -13.715
v -2.73 -2.27 -13.715
v -2.73 -3.12 -13.715
v -2.73 -3.32 -13.715
v -2.73 -2.53 -13.715
v -2.73 -2.81 -13.715
v -2.93 -2.81 -19.6012
v -2.93 -2.81 -14.6012
v -2.93 -2.53 -14.6012
v -2.93 -2.53 -19.6012
v -2.5 -2.53 -14.6012
v -2.5 -2.53 -19.6012
v -1.88 -2.35334 -14.6012
v -1.88 -2.35334 -19.6012
v 3.12 -2.35334 -14.6012
v 3.12 -2.35334 -19.6012
v -2.67 -2.81 -26.1712
v -2.67 -2.81 -21.1712
v -2.67 -2.71 -21.1712
v -2.67 -2.71 -26.1712
v -2.5 -2.71 -21.1712
v -2.5 -2.71 -26.1712
v -1.88 -2.35334 -21.3012
v -1.88 -2.35334 -26.3012
v 3.12 -2.35334 -21.3012
v 3.12 -2.35334 -26.3012
vn 0 0 1
vn 0 1 0
vn 0 0 -1
vn -1 0 0
vn 0 -1 0
vn 1 0 0
vt 0.827738 0.422318
vt 0.827737 0.498747
vt 0.752445 0.498745
vt 0.752446 0.422318
vt 0.866517 0.592358
vt 0.788707 0.592358
vt 0.774813 0.577832
vt 0.866517 0.577831
vt 0.997914 0.485935
vt 0.997914 0.527623
vt 0.984019 0.527623
vt 0.984017 0.471408
vt 0.901104 0.711158
vt 0.919559 0.711158
vt 0.919559 0.721895
vt 0.901104 0.721895
vt 0.919555 0.539256
vt 0.901101 0.539256
vt 0.901099 0.528519
vt 0.919555 0.528516
vt 0.857411 0.969498
vt 0.845261 0.969498
vt 0.845261 0.957421
vt 0.857411 0.957421
vt 0.857062 0.998545
vt 0.844912 0.998545
vt 0.844912 0.972194
vt 0.857062 0.972194
vt 0.871611 0.957421
vt 0.871611 0.969498
vt 0.871262 0.972194
vt 0.871262 0.998545
vt 0.993763 0.678262
vt 0.993763 0.99423
vt 0.984791 0.99423
vt 0.984791 0.678262
vt 0.981686 0.99423
vt 0.981686 0.678262
vt 0.978301 0.678936
vt 0.978301 0.994904
vt 0.949677 0.994904
vt 0.949677 0.678936
vt 0.93754 0.994904
vt 0.93754 0.678936
vt 0.0028768 0.676938
vt 0.0028768 0.36097
vt 0.318845 0.36097
vt 0.318845 0.676938
vt 0.324241 0.682929
vt 0.640209 0.682929
vt 0.640209 0.998897
vt 0.324241 0.998897
vt 0.318286 0.68257
vt 0.318286 0.998538
vt 0.00231735 0.998538
vt 0.00231735 0.68257
vt 0.843293 0.914359
vt 0.843293 0.95512
vt 0.643252 0.95512
vt 0.643252 0.914359
vt 0.643252 0.957686
vt 0.843293 0.957686
vt 0.843293 0.969763
vt 0.643252 0.969763
vt 0.643252 0.972288
vt 0.843293 0.972288
vt 0.843293 0.998639
vt 0.643252 0.998639
vt 0.857788 0.955047
vt 0.857788 0.914286
vt 0.869865 0.914286
vt 0.869865 0.955047
vt 0.84571 0.955047
vt 0.84571 0.914286
vt 0.861 0.739997
vt 0.773204 0.739997
vt 0.773203 0.670553
vt 0.861 0.670553
vt 0.76095 0.739997
vt 0.76095 0.670553
vt 0.873254 0.739997
vt 0.873253 0.670553
vt 0.773203 0.658299
vt 0.861 0.658299
vt 0.861 0.752251
vt 0.773204 0.752251
vt 0.868838 0.513563
vt 0.868839 0.416925
vt 0.910492 0.416925
vt 0.910491 0.513564
vt 0.868839 0.403029
vt 0.910492 0.403029
vt 0.91049 0.52746
vt 0.868838 0.52746
vt 0.924388 0.416926
vt 0.924386 0.513565
vt 0.854942 0.513564
vt 0.854943 0.416925
vt 0.796895 0.641805
vt 0.796895 0.610258
vt 0.856899 0.610258
vt 0.856899 0.641805
vt 0.786157 0.641805
vt 0.786157 0.610258
vt 0.867637 0.641805
vt 0.867637 0.610258
vt 0.796895 0.599521
vt 0.856899 0.59952
vt 0.856899 0.652542
vt 0.796895 0.652542
vt 0.930293 0.539256
vt 0.930296 0.711157
vt 0.890367 0.711158
vt 0.890363 0.539257
vt 0.878955 0.912933
vt 0.878963 0.74103
vt 0.914766 0.741032
vt 0.914757 0.912935
vt 0.878965 0.725236
vt 0.914768 0.725241
vt 0.914757 0.928724
vt 0.878955 0.928724
vt 0.930556 0.741033
vt 0.930547 0.912936
vt 0.863164 0.912932
vt 0.863172 0.741029
vt 0.773923 0.404
vt 0.827738 0.404
vt 0.827736 0.517064
vt 0.77392 0.517063
vt 0.668442 0.422318
vt 0.668441 0.400843
vt 0.73413 0.400843
vt 0.734128 0.520219
vt 0.66844 0.520218
vt 0.668441 0.498743
vt 0.846057 0.422318
vt 0.846054 0.498747
vt 0.646967 0.498742
vt 0.646967 0.422318
vt 0.866517 0.536182
vt 0.774811 0.536179
vt 0.788707 0.521653
vt 0.866517 0.521657
vt 0.760285 0.59173
vt 0.663638 0.591738
vt 0.663637 0.577841
vt 0.881043 0.536182
vt 0.881043 0.577832
vt 0.663635 0.536185
vt 0.64974 0.577841
vt 0.649738 0.536186
vt 0.663634 0.522288
vt 0.760282 0.522283
vt 0.998544 0.418226
vt 0.998545 0.457513
vt 0.984017 0.418226
vt 0.942365 0.471409
vt 0.942366 0.527624
vt 0.92847 0.527624
vt 0.928469 0.485936
vt 0.942365 0.418226
vt 0.942365 0.403698
vt 0.984017 0.403698
vt 0.984019 0.541519
vt 0.942366 0.54152
vt 0.927837 0.457513
vt 0.927837 0.418226
vt 0.685036 0.91188
vt 0.685036 0.595911
vt 0.711387 0.595911
vt 0.711387 0.91188
vt 0.644275 0.91188
vt 0.644275 0.595911
vt 0.737613 0.911089
vt 0.737613 0.59512
vt 0.756225 0.59512
vt 0.756225 0.911089
vt 0.715464 0.911089
vt 0.715464 0.59512
vt 0.799941 0.910953
vt 0.799941 0.75438
vt 0.826291 0.75438
vt 0.826291 0.910953
vt 0.75918 0.910953
vt 0.75918 0.75438
vt 0.325622 0.677204
vt 0.325622 0.361236
vt 0.64159 0.361236
vt 0.64159 0.677204
mtllib Low.mtl
usemtl Default
g Default
f 37/1/1 38/2/1 34/3/1 33/4/1
f 48/5/2 42/6/2 46/7/2 50/8/2
f 54/9/2 53/10/2 56/11/2 58/12/2
f 92/13/3 93/14/3 89/15/3 88/16/3
f 94/17/1 91/18/1 87/19/1 90/20/1
f 119/21/4 120/22/4 121/23/4 122/24/4
f 123/25/4 124/26/4 125/27/4 126/28/4
f 122/24/3 129/29/3 130/30/3 119/21/3
f 126/28/3 131/31/3 132/32/3 123/25/3
f 147/33/2 148/34/2 146/35/2 145/36/2
f 145/36/4 146/35/4 143/37/4 144/38/4
f 137/39/2 138/40/2 136/41/2 135/42/2
f 135/42/4 136/41/4 133/43/4 134/44/4
f 140/45/2 139/46/2 141/47/2 142/48/2
f 19/49/4 20/50/4 21/51/4 22/52/4
f 24/53/4 25/54/4 26/55/4 23/56/4
f 106/57/4 103/58/4 104/59/4 105/60/4
f 109/61/4 110/62/4 107/63/4 108/64/4
f 113/65/4 114/66/4 111/67/4 112/68/4
f 115/69/3 118/70/3 127/71/3 128/72/3
f 116/73/4 117/74/4 118/70/4 115/69/4
f 84/75/4 83/76/4 86/77/4 85/78/4
f 83/76/1 79/79/1 82/80/1 86/77/1
f 80/81/3 84/75/3 85/78/3 81/82/3
f 82/83/2 81/84/2 85/78/2 86/77/2
f 83/76/5 84/75/5 80/85/5 79/86/5
f 68/87/4 67/88/4 70/89/4 69/90/4
f 63/91/1 66/92/1 70/89/1 67/88/1
f 68/87/3 69/90/3 65/93/3 64/94/3
f 66/95/2 65/96/2 69/90/2 70/89/2
f 67/88/5 68/87/5 64/97/5 63/98/5
f 75/99/4 78/100/4 77/101/4 76/102/4
f 75/99/1 71/103/1 74/104/1 78/100/1
f 72/105/3 76/102/3 77/101/3 73/106/3
f 74/107/2 73/108/2 77/101/2 78/100/2
f 75/99/5 76/102/5 72/109/5 71/110/5
f 94/17/4 93/14/4 92/13/4 91/18/4
f 90/111/2 89/112/2 93/14/2 94/17/2
f 91/18/5 92/13/5 88/113/5 87/114/5
f 100/115/4 99/116/4 102/117/4 101/118/4
f 99/116/1 95/119/1 98/120/1 102/117/1
f 100/115/3 101/118/3 97/121/3 96/122/3
f 98/123/2 97/124/2 101/118/2 102/117/2
f 99/116/5 100/115/5 96/125/5 95/126/5
f 37/1/5 33/4/5 27/127/5 35/128/5
f 36/129/2 30/130/2 34/3/2 38/2/2
f 33/4/5 31/131/5 28/132/5 27/133/5
f 30/134/2 29/135/2 32/136/2 34/3/2
f 33/4/4 34/3/4 32/136/4 31/131/4
f 38/2/6 37/1/6 35/137/6 36/138/6
f 29/139/3 28/140/3 31/131/3 32/136/3
f 49/141/5 45/142/5 39/143/5 47/144/5
f 42/145/2 41/146/2 44/147/2 46/7/2
f 49/141/6 47/148/6 48/149/6 50/8/6
f 43/150/3 44/147/3 41/151/3 40/152/3
f 49/141/1 50/8/1 46/7/1 45/142/1
f 43/150/4 45/142/4 46/7/4 44/147/4
f 45/142/5 43/150/5 40/153/5 39/154/5
f 60/155/2 54/156/2 58/12/2 62/157/2
f 57/158/5 55/159/5 52/160/5 51/161/5
f 61/162/6 59/163/6 60/164/6 62/157/6
f 55/159/3 56/11/3 53/165/3 52/166/3
f 61/162/1 62/157/1 58/12/1 57/158/1
f 61/162/5 57/158/5 51/167/5 59/168/5
f 55/159/4 57/158/4 58/12/4 56/11/4
f 3/169/1 2/170/1 5/171/1 6/172/1
f 4/173/4 1/174/4 2/170/4 3/169/4
f 15/175/1 14/176/1 17/177/1 18/178/1
f 16/179/4 13/180/4 14/176/4 15/175/4
f 9/181/1 8/182/1 11/183/1 12/184/1
f 10/185/4 7/186/4 8/182/4 9/181/4
f 150/187/2 149/188/2 151/189/2 152/190/2
