# OBJ written from C:\Users\Alexander B Cubic PC\Desktop\New Unity Project\Assets\וףו.obj
# Units	meters

o Mesh (2)
v -11.27 -2.5 -0.47
v -11.27 2.5 -0.47
v -11.27 2.5 -5.47
v -11.27 -2.5 -5.47
v -11.27 -2.5 -5.86
v -11.27 -2.5 -5.47
v -11.27 2.5 -5.47
v -11.27 2.5 -5.86
v -10.79 -2.5 -5.91
v -11.22 -2.5 -5.91
v -11.22 2.5 -5.91
v -10.79 2.5 -5.91
v -11.22 -2.5 0.00999993
v -10.83 -2.5 0.00999993
v -10.83 2.5 0.00999993
v -11.22 2.5 0.00999993
v -11.27 -2.5 -0.47
v -11.27 -2.5 -0.0400003
v -11.27 2.5 -0.0400003
v -11.27 2.5 -0.47
v -11.2644 2.5 -5.8878
v -11.2644 -2.5 -5.8878
v -11.2478 2.5 0.00439996
v -11.2478 -2.5 0.00439996
v -11.2478 2.5 -5.9044
v -11.2478 -2.5 -5.9044
v -11.2644 2.5 -0.0122002
v -11.2644 -2.5 -0.0122002
v -5.83 2.5 0.00999993
v -10.83 2.5 0.00999993
v -10.83 -2.5 0.00999993
v -5.83 -2.5 0.00999993
vn -1 0 0
vn -0.995065 0 -0.0992267
vn 0 0 -1
vn -0.0992267 0 -0.995065
vn -0.0992267 0 0.995065
vn 0 0 1
vn -0.995065 0 0.0992251
vn -0.881348 0 -0.472468
vn -0.472462 0 0.881351
vn -0.472468 0 -0.881348
vn -0.881345 0 0.472473
vt 0.6402 0.6829
vt 0.6402 0.9989
vt 0.3242 0.9989
vt 0.3242 0.6829
vt 0.688 0.5959
vt 0.7114 0.5959
vt 0.7114 0.9119
vt 0.688 0.9119
vt 0.6443 0.5959
vt 0.6808 0.5959
vt 0.6808 0.9119
vt 0.6443 0.9119
vt 0.7397 0.5951
vt 0.7562 0.5951
vt 0.7562 0.9111
vt 0.7397 0.9111
vt 0.7155 0.5951
vt 0.7353 0.5951
vt 0.7353 0.9111
vt 0.7155 0.9111
vt 0.6856 0.9119
vt 0.6856 0.5959
vt 0.7383 0.9111
vt 0.7383 0.5951
vt 0.6832 0.9119
vt 0.6832 0.5959
vt 0.7368 0.9111
vt 0.7368 0.5951
vt 0.3183 0.9985
vt 0.0023 0.9985
vt 0.0023 0.6826
vt 0.3183 0.6826
mtllib וףו.mtl
usemtl Default
g Mesh__2_
f 1/1/1 2/2/1 3/3/1 4/4/1
f 5/5/2 6/6/1 7/7/1 8/8/2
f 9/9/3 10/10/4 11/11/4 12/12/3
f 13/13/5 14/14/6 15/15/6 16/16/5
f 17/17/1 18/18/7 19/19/7 20/20/1
f 8/8/2 21/21/8 22/22/8 5/5/2
f 16/16/5 23/23/9 24/24/9 13/13/5
f 21/21/8 25/25/10 26/26/10 22/22/8
f 25/25/10 11/11/4 10/10/4 26/26/10
f 23/23/9 27/27/11 28/28/11 24/24/9
f 27/27/11 19/19/7 18/18/7 28/28/11
f 29/29/6 30/30/6 31/31/6 32/32/6
